<svg width="199" height="59" viewBox="0 0 199 59" fill="none" xmlns="http://www.w3.org/2000/svg">
<path d="M80.1019 21.336H85.6219V24H76.7419V7.24799H80.1019V21.336ZM100.31 10.704V24H96.9256V22.32C96.4936 22.896 95.9256 23.352 95.2216 23.688C94.5336 24.008 93.7816 24.168 92.9656 24.168C91.9256 24.168 91.0056 23.952 90.2056 23.52C89.4056 23.072 88.7736 22.424 88.3096 21.576C87.8616 20.712 87.6376 19.688 87.6376 18.504V10.704H90.9976V18.024C90.9976 19.08 91.2616 19.896 91.7896 20.472C92.3176 21.032 93.0376 21.312 93.9496 21.312C94.8776 21.312 95.6056 21.032 96.1336 20.472C96.6616 19.896 96.9256 19.08 96.9256 18.024V10.704H100.31ZM120.137 10.512C121.769 10.512 123.081 11.016 124.073 12.024C125.081 13.016 125.585 14.408 125.585 16.2V24H122.225V16.656C122.225 15.616 121.961 14.824 121.433 14.28C120.905 13.72 120.185 13.44 119.273 13.44C118.361 13.44 117.633 13.72 117.089 14.28C116.561 14.824 116.297 15.616 116.297 16.656V24H112.937V16.656C112.937 15.616 112.673 14.824 112.145 14.28C111.617 13.72 110.897 13.44 109.985 13.44C109.057 13.44 108.321 13.72 107.777 14.28C107.249 14.824 106.985 15.616 106.985 16.656V24H103.625V10.704H106.985V12.312C107.417 11.752 107.969 11.312 108.641 10.992C109.329 10.672 110.081 10.512 110.897 10.512C111.937 10.512 112.865 10.736 113.681 11.184C114.497 11.616 115.129 12.24 115.577 13.056C116.009 12.288 116.633 11.672 117.449 11.208C118.281 10.744 119.177 10.512 120.137 10.512ZM130.477 9.11999C129.885 9.11999 129.389 8.93599 128.989 8.56799C128.605 8.18399 128.413 7.71199 128.413 7.15199C128.413 6.59199 128.605 6.12799 128.989 5.75999C129.389 5.37599 129.885 5.18399 130.477 5.18399C131.069 5.18399 131.557 5.37599 131.941 5.75999C132.341 6.12799 132.541 6.59199 132.541 7.15199C132.541 7.71199 132.341 8.18399 131.941 8.56799C131.557 8.93599 131.069 9.11999 130.477 9.11999ZM132.133 10.704V24H128.773V10.704H132.133ZM142.821 10.512C144.405 10.512 145.685 11.016 146.661 12.024C147.637 13.016 148.125 14.408 148.125 16.2V24H144.765V16.656C144.765 15.6 144.501 14.792 143.973 14.232C143.445 13.656 142.725 13.368 141.813 13.368C140.885 13.368 140.149 13.656 139.605 14.232C139.077 14.792 138.813 15.6 138.813 16.656V24H135.453V10.704H138.813V12.36C139.261 11.784 139.829 11.336 140.517 11.016C141.221 10.68 141.989 10.512 142.821 10.512ZM157.224 24.216C155.944 24.216 154.792 23.936 153.768 23.376C152.744 22.8 151.936 21.992 151.344 20.952C150.768 19.912 150.48 18.712 150.48 17.352C150.48 15.992 150.776 14.792 151.368 13.752C151.976 12.712 152.8 11.912 153.84 11.352C154.88 10.776 156.04 10.488 157.32 10.488C158.6 10.488 159.76 10.776 160.8 11.352C161.84 11.912 162.656 12.712 163.248 13.752C163.856 14.792 164.16 15.992 164.16 17.352C164.16 18.712 163.848 19.912 163.224 20.952C162.616 21.992 161.784 22.8 160.728 23.376C159.688 23.936 158.52 24.216 157.224 24.216ZM157.224 21.288C157.832 21.288 158.4 21.144 158.928 20.856C159.472 20.552 159.904 20.104 160.224 19.512C160.544 18.92 160.704 18.2 160.704 17.352C160.704 16.088 160.368 15.12 159.696 14.448C159.04 13.76 158.232 13.416 157.272 13.416C156.312 13.416 155.504 13.76 154.848 14.448C154.208 15.12 153.888 16.088 153.888 17.352C153.888 18.616 154.2 19.592 154.824 20.28C155.464 20.952 156.264 21.288 157.224 21.288ZM179.177 10.704V24H175.793V22.32C175.361 22.896 174.793 23.352 174.089 23.688C173.401 24.008 172.649 24.168 171.833 24.168C170.793 24.168 169.873 23.952 169.073 23.52C168.273 23.072 167.641 22.424 167.177 21.576C166.729 20.712 166.505 19.688 166.505 18.504V10.704H169.865V18.024C169.865 19.08 170.129 19.896 170.657 20.472C171.185 21.032 171.905 21.312 172.817 21.312C173.745 21.312 174.473 21.032 175.001 20.472C175.529 19.896 175.793 19.08 175.793 18.024V10.704H179.177ZM187.58 24.216C186.492 24.216 185.516 24.024 184.652 23.64C183.788 23.24 183.1 22.704 182.588 22.032C182.092 21.36 181.82 20.616 181.772 19.8H185.156C185.22 20.312 185.468 20.736 185.9 21.072C186.348 21.408 186.9 21.576 187.556 21.576C188.196 21.576 188.692 21.448 189.044 21.192C189.412 20.936 189.596 20.608 189.596 20.208C189.596 19.776 189.372 19.456 188.924 19.248C188.492 19.024 187.796 18.784 186.836 18.528C185.844 18.288 185.028 18.04 184.388 17.784C183.764 17.528 183.22 17.136 182.756 16.608C182.308 16.08 182.084 15.368 182.084 14.472C182.084 13.736 182.292 13.064 182.708 12.456C183.14 11.848 183.748 11.368 184.532 11.016C185.332 10.664 186.268 10.488 187.34 10.488C188.924 10.488 190.188 10.888 191.132 11.688C192.076 12.472 192.596 13.536 192.692 14.88H189.476C189.428 14.352 189.204 13.936 188.804 13.632C188.42 13.312 187.9 13.152 187.244 13.152C186.636 13.152 186.164 13.264 185.828 13.488C185.508 13.712 185.348 14.024 185.348 14.424C185.348 14.872 185.572 15.216 186.02 15.456C186.468 15.68 187.164 15.912 188.108 16.152C189.068 16.392 189.86 16.64 190.484 16.896C191.108 17.152 191.644 17.552 192.092 18.096C192.556 18.624 192.796 19.328 192.812 20.208C192.812 20.976 192.596 21.664 192.164 22.272C191.748 22.88 191.14 23.36 190.34 23.712C189.556 24.048 188.636 24.216 187.58 24.216Z" fill="white"/>
<path d="M86.2616 44.408C87.2056 44.584 87.9816 45.056 88.5896 45.824C89.1976 46.592 89.5016 47.472 89.5016 48.464C89.5016 49.36 89.2776 50.152 88.8296 50.84C88.3976 51.512 87.7656 52.04 86.9336 52.424C86.1016 52.808 85.1176 53 83.9816 53H76.7576V36.248H83.6696C84.8056 36.248 85.7816 36.432 86.5976 36.8C87.4296 37.168 88.0536 37.68 88.4696 38.336C88.9016 38.992 89.1176 39.736 89.1176 40.568C89.1176 41.544 88.8536 42.36 88.3256 43.016C87.8136 43.672 87.1256 44.136 86.2616 44.408ZM80.1176 43.16H83.1896C83.9896 43.16 84.6056 42.984 85.0376 42.632C85.4696 42.264 85.6856 41.744 85.6856 41.072C85.6856 40.4 85.4696 39.88 85.0376 39.512C84.6056 39.144 83.9896 38.96 83.1896 38.96H80.1176V43.16ZM83.5016 50.264C84.3176 50.264 84.9496 50.072 85.3976 49.688C85.8616 49.304 86.0936 48.76 86.0936 48.056C86.0936 47.336 85.8536 46.776 85.3736 46.376C84.8936 45.96 84.2456 45.752 83.4296 45.752H80.1176V50.264H83.5016ZM98.0834 53.216C96.8034 53.216 95.6514 52.936 94.6274 52.376C93.6034 51.8 92.7954 50.992 92.2034 49.952C91.6274 48.912 91.3394 47.712 91.3394 46.352C91.3394 44.992 91.6354 43.792 92.2274 42.752C92.8354 41.712 93.6594 40.912 94.6994 40.352C95.7394 39.776 96.8994 39.488 98.1794 39.488C99.4594 39.488 100.619 39.776 101.659 40.352C102.699 40.912 103.515 41.712 104.107 42.752C104.715 43.792 105.019 44.992 105.019 46.352C105.019 47.712 104.707 48.912 104.083 49.952C103.475 50.992 102.643 51.8 101.587 52.376C100.547 52.936 99.3794 53.216 98.0834 53.216ZM98.0834 50.288C98.6914 50.288 99.2594 50.144 99.7874 49.856C100.331 49.552 100.763 49.104 101.083 48.512C101.403 47.92 101.563 47.2 101.563 46.352C101.563 45.088 101.227 44.12 100.555 43.448C99.8994 42.76 99.0914 42.416 98.1314 42.416C97.1714 42.416 96.3634 42.76 95.7074 43.448C95.0674 44.12 94.7474 45.088 94.7474 46.352C94.7474 47.616 95.0594 48.592 95.6834 49.28C96.3234 49.952 97.1234 50.288 98.0834 50.288ZM113.388 53.216C112.108 53.216 110.956 52.936 109.932 52.376C108.908 51.8 108.1 50.992 107.508 49.952C106.932 48.912 106.644 47.712 106.644 46.352C106.644 44.992 106.94 43.792 107.532 42.752C108.14 41.712 108.964 40.912 110.004 40.352C111.044 39.776 112.204 39.488 113.484 39.488C114.764 39.488 115.924 39.776 116.964 40.352C118.004 40.912 118.82 41.712 119.412 42.752C120.02 43.792 120.324 44.992 120.324 46.352C120.324 47.712 120.012 48.912 119.388 49.952C118.78 50.992 117.948 51.8 116.892 52.376C115.852 52.936 114.684 53.216 113.388 53.216ZM113.388 50.288C113.996 50.288 114.564 50.144 115.092 49.856C115.636 49.552 116.068 49.104 116.388 48.512C116.708 47.92 116.868 47.2 116.868 46.352C116.868 45.088 116.532 44.12 115.86 43.448C115.204 42.76 114.396 42.416 113.436 42.416C112.476 42.416 111.668 42.76 111.012 43.448C110.372 44.12 110.052 45.088 110.052 46.352C110.052 47.616 110.364 48.592 110.988 49.28C111.628 49.952 112.428 50.288 113.388 50.288ZM130.661 53L126.149 47.336V53H122.789V35.24H126.149V45.344L130.613 39.704H134.981L129.125 46.376L135.029 53H130.661ZM142.588 53.168C141.42 53.168 140.364 52.968 139.42 52.568C138.492 52.168 137.756 51.592 137.212 50.84C136.668 50.088 136.388 49.2 136.372 48.176H139.972C140.02 48.864 140.26 49.408 140.692 49.808C141.14 50.208 141.748 50.408 142.516 50.408C143.3 50.408 143.916 50.224 144.364 49.856C144.812 49.472 145.036 48.976 145.036 48.368C145.036 47.872 144.884 47.464 144.58 47.144C144.276 46.824 143.892 46.576 143.428 46.4C142.98 46.208 142.356 46 141.556 45.776C140.468 45.456 139.58 45.144 138.892 44.84C138.22 44.52 137.636 44.048 137.14 43.424C136.66 42.784 136.42 41.936 136.42 40.88C136.42 39.888 136.668 39.024 137.164 38.288C137.66 37.552 138.356 36.992 139.252 36.608C140.148 36.208 141.172 36.008 142.324 36.008C144.052 36.008 145.452 36.432 146.524 37.28C147.612 38.112 148.212 39.28 148.324 40.784H144.628C144.596 40.208 144.348 39.736 143.884 39.368C143.436 38.984 142.836 38.792 142.084 38.792C141.428 38.792 140.9 38.96 140.5 39.296C140.116 39.632 139.924 40.12 139.924 40.76C139.924 41.208 140.068 41.584 140.356 41.888C140.66 42.176 141.028 42.416 141.46 42.608C141.908 42.784 142.532 42.992 143.332 43.232C144.42 43.552 145.308 43.872 145.996 44.192C146.684 44.512 147.276 44.992 147.772 45.632C148.268 46.272 148.516 47.112 148.516 48.152C148.516 49.048 148.284 49.88 147.82 50.648C147.356 51.416 146.676 52.032 145.78 52.496C144.884 52.944 143.82 53.168 142.588 53.168ZM155.341 42.464V48.896C155.341 49.344 155.445 49.672 155.653 49.88C155.877 50.072 156.245 50.168 156.757 50.168H158.317V53H156.205C153.373 53 151.957 51.624 151.957 48.872V42.464H150.373V39.704H151.957V36.416H155.341V39.704H158.317V42.464H155.341ZM166.638 53.216C165.358 53.216 164.206 52.936 163.182 52.376C162.158 51.8 161.35 50.992 160.758 49.952C160.182 48.912 159.894 47.712 159.894 46.352C159.894 44.992 160.19 43.792 160.782 42.752C161.39 41.712 162.214 40.912 163.254 40.352C164.294 39.776 165.454 39.488 166.734 39.488C168.014 39.488 169.174 39.776 170.214 40.352C171.254 40.912 172.07 41.712 172.662 42.752C173.27 43.792 173.574 44.992 173.574 46.352C173.574 47.712 173.262 48.912 172.638 49.952C172.03 50.992 171.198 51.8 170.142 52.376C169.102 52.936 167.934 53.216 166.638 53.216ZM166.638 50.288C167.246 50.288 167.814 50.144 168.342 49.856C168.886 49.552 169.318 49.104 169.638 48.512C169.958 47.92 170.118 47.2 170.118 46.352C170.118 45.088 169.782 44.12 169.11 43.448C168.454 42.76 167.646 42.416 166.686 42.416C165.726 42.416 164.918 42.76 164.262 43.448C163.622 44.12 163.302 45.088 163.302 46.352C163.302 47.616 163.614 48.592 164.238 49.28C164.878 49.952 165.678 50.288 166.638 50.288ZM179.399 41.768C179.831 41.064 180.391 40.512 181.079 40.112C181.783 39.712 182.583 39.512 183.479 39.512V43.04H182.591C181.535 43.04 180.735 43.288 180.191 43.784C179.663 44.28 179.399 45.144 179.399 46.376V53H176.039V39.704H179.399V41.768ZM198.102 46.064C198.102 46.544 198.07 46.976 198.006 47.36H188.286C188.366 48.32 188.702 49.072 189.294 49.616C189.886 50.16 190.614 50.432 191.478 50.432C192.726 50.432 193.614 49.896 194.142 48.824H197.766C197.382 50.104 196.646 51.16 195.558 51.992C194.47 52.808 193.134 53.216 191.55 53.216C190.27 53.216 189.118 52.936 188.094 52.376C187.086 51.8 186.294 50.992 185.718 49.952C185.158 48.912 184.878 47.712 184.878 46.352C184.878 44.976 185.158 43.768 185.718 42.728C186.278 41.688 187.062 40.888 188.07 40.328C189.078 39.768 190.238 39.488 191.55 39.488C192.814 39.488 193.942 39.76 194.934 40.304C195.942 40.848 196.718 41.624 197.262 42.632C197.822 43.624 198.102 44.768 198.102 46.064ZM194.622 45.104C194.606 44.24 194.294 43.552 193.686 43.04C193.078 42.512 192.334 42.248 191.454 42.248C190.622 42.248 189.918 42.504 189.342 43.016C188.782 43.512 188.438 44.208 188.31 45.104H194.622Z" fill="white"/>
<rect y="1.99999" width="19" height="53" rx="2" fill="#EF2346"/>
<rect x="2.5" y="4.49999" width="14" height="47" rx="1.5" fill="#EF2346" stroke="#07060E"/>
<rect x="19" y="1.99999" width="18" height="53" rx="2" fill="#7073EE"/>
<rect x="21.5" y="4.49999" width="13" height="47" rx="1.5" fill="#7073EE" stroke="#07060E"/>
<rect x="37" y="3.566" width="16" height="53" rx="2" transform="rotate(-12.8779 37 3.566)" fill="#FABA26"/>
<rect x="39.8596" y="5.51663" width="11.1692" height="47.799" rx="1.5" transform="rotate(-12.8779 39.8596 5.51663)" fill="#FABA26" stroke="#07060E"/>
</svg>
